<svg width="434" height="434" viewBox="0 0 434 434" fill="none" xmlns="http://www.w3.org/2000/svg">
<path d="M193.639 196.223H195.104C195.057 196.781 194.9 197.279 194.635 197.717C194.369 198.15 193.996 198.492 193.516 198.742C193.035 198.992 192.451 199.117 191.764 199.117C191.236 199.117 190.762 199.023 190.34 198.836C189.918 198.645 189.557 198.375 189.256 198.027C188.955 197.676 188.725 197.252 188.564 196.756C188.408 196.26 188.33 195.705 188.33 195.092V194.383C188.33 193.77 188.41 193.215 188.57 192.719C188.734 192.223 188.969 191.799 189.273 191.447C189.578 191.092 189.943 190.82 190.369 190.633C190.799 190.445 191.281 190.352 191.816 190.352C192.496 190.352 193.07 190.477 193.539 190.727C194.008 190.977 194.371 191.322 194.629 191.764C194.891 192.205 195.051 192.711 195.109 193.281H193.645C193.605 192.914 193.52 192.6 193.387 192.338C193.258 192.076 193.066 191.877 192.812 191.74C192.559 191.6 192.227 191.529 191.816 191.529C191.48 191.529 191.188 191.592 190.938 191.717C190.688 191.842 190.479 192.025 190.311 192.268C190.143 192.51 190.016 192.809 189.93 193.164C189.848 193.516 189.807 193.918 189.807 194.371V195.092C189.807 195.521 189.844 195.912 189.918 196.264C189.996 196.611 190.113 196.91 190.27 197.16C190.43 197.41 190.633 197.604 190.879 197.74C191.125 197.877 191.42 197.945 191.764 197.945C192.182 197.945 192.52 197.879 192.777 197.746C193.039 197.613 193.236 197.42 193.369 197.166C193.506 196.908 193.596 196.594 193.639 196.223ZM196.029 195.9V195.766C196.029 195.309 196.096 194.885 196.229 194.494C196.361 194.1 196.553 193.758 196.803 193.469C197.057 193.176 197.365 192.949 197.729 192.789C198.096 192.625 198.51 192.543 198.971 192.543C199.436 192.543 199.85 192.625 200.213 192.789C200.58 192.949 200.891 193.176 201.145 193.469C201.398 193.758 201.592 194.1 201.725 194.494C201.857 194.885 201.924 195.309 201.924 195.766V195.9C201.924 196.357 201.857 196.781 201.725 197.172C201.592 197.562 201.398 197.904 201.145 198.197C200.891 198.486 200.582 198.713 200.219 198.877C199.855 199.037 199.443 199.117 198.982 199.117C198.518 199.117 198.102 199.037 197.734 198.877C197.371 198.713 197.062 198.486 196.809 198.197C196.555 197.904 196.361 197.562 196.229 197.172C196.096 196.781 196.029 196.357 196.029 195.9ZM197.441 195.766V195.9C197.441 196.186 197.471 196.455 197.529 196.709C197.588 196.963 197.68 197.186 197.805 197.377C197.93 197.568 198.09 197.719 198.285 197.828C198.48 197.938 198.713 197.992 198.982 197.992C199.244 197.992 199.471 197.938 199.662 197.828C199.857 197.719 200.018 197.568 200.143 197.377C200.268 197.186 200.359 196.963 200.418 196.709C200.48 196.455 200.512 196.186 200.512 195.9V195.766C200.512 195.484 200.48 195.219 200.418 194.969C200.359 194.715 200.266 194.49 200.137 194.295C200.012 194.1 199.852 193.947 199.656 193.838C199.465 193.725 199.236 193.668 198.971 193.668C198.705 193.668 198.475 193.725 198.279 193.838C198.088 193.947 197.93 194.1 197.805 194.295C197.68 194.49 197.588 194.715 197.529 194.969C197.471 195.219 197.441 195.484 197.441 195.766ZM204.52 193.949V199H203.107V192.66H204.438L204.52 193.949ZM204.291 195.596L203.811 195.59C203.811 195.152 203.865 194.748 203.975 194.377C204.084 194.006 204.244 193.684 204.455 193.41C204.666 193.133 204.928 192.92 205.24 192.771C205.557 192.619 205.922 192.543 206.336 192.543C206.625 192.543 206.889 192.586 207.127 192.672C207.369 192.754 207.578 192.885 207.754 193.064C207.934 193.244 208.07 193.475 208.164 193.756C208.262 194.037 208.311 194.377 208.311 194.775V199H206.898V194.898C206.898 194.59 206.852 194.348 206.758 194.172C206.668 193.996 206.537 193.871 206.365 193.797C206.197 193.719 205.996 193.68 205.762 193.68C205.496 193.68 205.27 193.73 205.082 193.832C204.898 193.934 204.748 194.072 204.631 194.248C204.514 194.424 204.428 194.627 204.373 194.857C204.318 195.088 204.291 195.334 204.291 195.596ZM208.223 195.221L207.561 195.367C207.561 194.984 207.613 194.623 207.719 194.283C207.828 193.939 207.986 193.639 208.193 193.381C208.404 193.119 208.664 192.914 208.973 192.766C209.281 192.617 209.635 192.543 210.033 192.543C210.357 192.543 210.646 192.588 210.9 192.678C211.158 192.764 211.377 192.9 211.557 193.088C211.736 193.275 211.873 193.52 211.967 193.82C212.061 194.117 212.107 194.477 212.107 194.898V199H210.689V194.893C210.689 194.572 210.643 194.324 210.549 194.148C210.459 193.973 210.33 193.852 210.162 193.785C209.994 193.715 209.793 193.68 209.559 193.68C209.34 193.68 209.146 193.721 208.979 193.803C208.814 193.881 208.676 193.992 208.562 194.137C208.449 194.277 208.363 194.439 208.305 194.623C208.25 194.807 208.223 195.006 208.223 195.221ZM214.979 193.879V201.438H213.566V192.66H214.867L214.979 193.879ZM219.109 195.771V195.895C219.109 196.355 219.055 196.783 218.945 197.178C218.84 197.568 218.682 197.91 218.471 198.203C218.264 198.492 218.008 198.717 217.703 198.877C217.398 199.037 217.047 199.117 216.648 199.117C216.254 199.117 215.908 199.045 215.611 198.9C215.318 198.752 215.07 198.543 214.867 198.273C214.664 198.004 214.5 197.688 214.375 197.324C214.254 196.957 214.168 196.555 214.117 196.117V195.643C214.168 195.178 214.254 194.756 214.375 194.377C214.5 193.998 214.664 193.672 214.867 193.398C215.07 193.125 215.318 192.914 215.611 192.766C215.904 192.617 216.246 192.543 216.637 192.543C217.035 192.543 217.389 192.621 217.697 192.777C218.006 192.93 218.266 193.148 218.477 193.434C218.688 193.715 218.846 194.055 218.951 194.453C219.057 194.848 219.109 195.287 219.109 195.771ZM217.697 195.895V195.771C217.697 195.479 217.67 195.207 217.615 194.957C217.561 194.703 217.475 194.48 217.357 194.289C217.24 194.098 217.09 193.949 216.906 193.844C216.727 193.734 216.51 193.68 216.256 193.68C216.006 193.68 215.791 193.723 215.611 193.809C215.432 193.891 215.281 194.006 215.16 194.154C215.039 194.303 214.945 194.477 214.879 194.676C214.812 194.871 214.766 195.084 214.738 195.314V196.451C214.785 196.732 214.865 196.99 214.979 197.225C215.092 197.459 215.252 197.646 215.459 197.787C215.67 197.924 215.939 197.992 216.268 197.992C216.521 197.992 216.738 197.938 216.918 197.828C217.098 197.719 217.244 197.568 217.357 197.377C217.475 197.182 217.561 196.957 217.615 196.703C217.67 196.449 217.697 196.18 217.697 195.895ZM221.822 190V199H220.404V190H221.822ZM226.164 199.117C225.695 199.117 225.271 199.041 224.893 198.889C224.518 198.732 224.197 198.516 223.932 198.238C223.67 197.961 223.469 197.635 223.328 197.26C223.188 196.885 223.117 196.48 223.117 196.047V195.812C223.117 195.316 223.189 194.867 223.334 194.465C223.479 194.062 223.68 193.719 223.938 193.434C224.195 193.145 224.5 192.924 224.852 192.771C225.203 192.619 225.584 192.543 225.994 192.543C226.447 192.543 226.844 192.619 227.184 192.771C227.523 192.924 227.805 193.139 228.027 193.416C228.254 193.689 228.422 194.016 228.531 194.395C228.645 194.773 228.701 195.191 228.701 195.648V196.252H223.803V195.238H227.307V195.127C227.299 194.873 227.248 194.635 227.154 194.412C227.064 194.189 226.926 194.01 226.738 193.873C226.551 193.736 226.301 193.668 225.988 193.668C225.754 193.668 225.545 193.719 225.361 193.82C225.182 193.918 225.031 194.061 224.91 194.248C224.789 194.436 224.695 194.662 224.629 194.928C224.566 195.189 224.535 195.484 224.535 195.812V196.047C224.535 196.324 224.572 196.582 224.646 196.82C224.725 197.055 224.838 197.26 224.986 197.436C225.135 197.611 225.314 197.75 225.525 197.852C225.736 197.949 225.977 197.998 226.246 197.998C226.586 197.998 226.889 197.93 227.154 197.793C227.42 197.656 227.65 197.463 227.846 197.213L228.59 197.934C228.453 198.133 228.275 198.324 228.057 198.508C227.838 198.688 227.57 198.834 227.254 198.947C226.941 199.061 226.578 199.117 226.164 199.117ZM232.709 192.66V193.691H229.135V192.66H232.709ZM230.166 191.107H231.578V197.248C231.578 197.443 231.605 197.594 231.66 197.699C231.719 197.801 231.799 197.869 231.9 197.904C232.002 197.939 232.121 197.957 232.258 197.957C232.355 197.957 232.449 197.951 232.539 197.939C232.629 197.928 232.701 197.916 232.756 197.904L232.762 198.982C232.645 199.018 232.508 199.049 232.352 199.076C232.199 199.104 232.023 199.117 231.824 199.117C231.5 199.117 231.213 199.061 230.963 198.947C230.713 198.83 230.518 198.641 230.377 198.379C230.236 198.117 230.166 197.77 230.166 197.336V191.107ZM236.594 199.117C236.125 199.117 235.701 199.041 235.322 198.889C234.947 198.732 234.627 198.516 234.361 198.238C234.1 197.961 233.898 197.635 233.758 197.26C233.617 196.885 233.547 196.48 233.547 196.047V195.812C233.547 195.316 233.619 194.867 233.764 194.465C233.908 194.062 234.109 193.719 234.367 193.434C234.625 193.145 234.93 192.924 235.281 192.771C235.633 192.619 236.014 192.543 236.424 192.543C236.877 192.543 237.273 192.619 237.613 192.771C237.953 192.924 238.234 193.139 238.457 193.416C238.684 193.689 238.852 194.016 238.961 194.395C239.074 194.773 239.131 195.191 239.131 195.648V196.252H234.232V195.238H237.736V195.127C237.729 194.873 237.678 194.635 237.584 194.412C237.494 194.189 237.355 194.01 237.168 193.873C236.98 193.736 236.73 193.668 236.418 193.668C236.184 193.668 235.975 193.719 235.791 193.82C235.611 193.918 235.461 194.061 235.34 194.248C235.219 194.436 235.125 194.662 235.059 194.928C234.996 195.189 234.965 195.484 234.965 195.812V196.047C234.965 196.324 235.002 196.582 235.076 196.82C235.154 197.055 235.268 197.26 235.416 197.436C235.564 197.611 235.744 197.75 235.955 197.852C236.166 197.949 236.406 197.998 236.676 197.998C237.016 197.998 237.318 197.93 237.584 197.793C237.85 197.656 238.08 197.463 238.275 197.213L239.02 197.934C238.883 198.133 238.705 198.324 238.486 198.508C238.268 198.688 238 198.834 237.684 198.947C237.371 199.061 237.008 199.117 236.594 199.117ZM244.1 197.688V190H245.518V199H244.234L244.1 197.688ZM239.975 195.9V195.777C239.975 195.297 240.031 194.859 240.145 194.465C240.258 194.066 240.422 193.725 240.637 193.439C240.852 193.15 241.113 192.93 241.422 192.777C241.73 192.621 242.078 192.543 242.465 192.543C242.848 192.543 243.184 192.617 243.473 192.766C243.762 192.914 244.008 193.127 244.211 193.404C244.414 193.678 244.576 194.006 244.697 194.389C244.818 194.768 244.904 195.189 244.955 195.654V196.047C244.904 196.5 244.818 196.914 244.697 197.289C244.576 197.664 244.414 197.988 244.211 198.262C244.008 198.535 243.76 198.746 243.467 198.895C243.178 199.043 242.84 199.117 242.453 199.117C242.07 199.117 241.725 199.037 241.416 198.877C241.111 198.717 240.852 198.492 240.637 198.203C240.422 197.914 240.258 197.574 240.145 197.184C240.031 196.789 239.975 196.361 239.975 195.9ZM241.387 195.777V195.9C241.387 196.189 241.412 196.459 241.463 196.709C241.518 196.959 241.602 197.18 241.715 197.371C241.828 197.559 241.975 197.707 242.154 197.816C242.338 197.922 242.557 197.975 242.811 197.975C243.131 197.975 243.395 197.904 243.602 197.764C243.809 197.623 243.971 197.434 244.088 197.195C244.209 196.953 244.291 196.684 244.334 196.387V195.326C244.311 195.096 244.262 194.881 244.188 194.682C244.117 194.482 244.021 194.309 243.9 194.16C243.779 194.008 243.629 193.891 243.449 193.809C243.273 193.723 243.064 193.68 242.822 193.68C242.564 193.68 242.346 193.734 242.166 193.844C241.986 193.953 241.838 194.104 241.721 194.295C241.607 194.486 241.523 194.709 241.469 194.963C241.414 195.217 241.387 195.488 241.387 195.777Z" fill="#737373"/>
<path d="M203.812 215.25V217.672L195.016 238H190.266L199.062 218.766H187.734V215.25H203.812ZM222.297 234.484V238H206.734V235L214.094 227.109C214.833 226.286 215.417 225.562 215.844 224.938C216.271 224.302 216.578 223.734 216.766 223.234C216.964 222.724 217.062 222.24 217.062 221.781C217.062 221.094 216.948 220.505 216.719 220.016C216.49 219.516 216.151 219.13 215.703 218.859C215.266 218.589 214.724 218.453 214.078 218.453C213.391 218.453 212.797 218.62 212.297 218.953C211.807 219.286 211.432 219.75 211.172 220.344C210.922 220.938 210.797 221.609 210.797 222.359H206.281C206.281 221.005 206.604 219.766 207.25 218.641C207.896 217.505 208.807 216.604 209.984 215.938C211.161 215.26 212.557 214.922 214.172 214.922C215.766 214.922 217.109 215.182 218.203 215.703C219.307 216.214 220.141 216.953 220.703 217.922C221.276 218.88 221.562 220.026 221.562 221.359C221.562 222.109 221.443 222.844 221.203 223.562C220.964 224.271 220.62 224.979 220.172 225.688C219.734 226.385 219.203 227.094 218.578 227.812C217.953 228.531 217.26 229.276 216.5 230.047L212.547 234.484H222.297ZM225.047 220.828V219.625C225.047 218.76 225.234 217.974 225.609 217.266C225.984 216.557 226.536 215.99 227.266 215.562C227.995 215.135 228.891 214.922 229.953 214.922C231.047 214.922 231.958 215.135 232.688 215.562C233.427 215.99 233.979 216.557 234.344 217.266C234.719 217.974 234.906 218.76 234.906 219.625V220.828C234.906 221.672 234.719 222.448 234.344 223.156C233.979 223.865 233.432 224.432 232.703 224.859C231.974 225.286 231.068 225.5 229.984 225.5C228.911 225.5 228.005 225.286 227.266 224.859C226.536 224.432 225.984 223.865 225.609 223.156C225.234 222.448 225.047 221.672 225.047 220.828ZM228.031 219.625V220.828C228.031 221.193 228.099 221.542 228.234 221.875C228.38 222.198 228.599 222.464 228.891 222.672C229.193 222.87 229.557 222.969 229.984 222.969C230.432 222.969 230.797 222.87 231.078 222.672C231.359 222.464 231.568 222.198 231.703 221.875C231.839 221.542 231.906 221.193 231.906 220.828V219.625C231.906 219.24 231.833 218.885 231.688 218.562C231.552 218.229 231.339 217.964 231.047 217.766C230.766 217.557 230.401 217.453 229.953 217.453C229.536 217.453 229.182 217.557 228.891 217.766C228.599 217.964 228.38 218.229 228.234 218.562C228.099 218.885 228.031 219.24 228.031 219.625ZM235.922 233.625V232.422C235.922 231.568 236.109 230.786 236.484 230.078C236.87 229.37 237.427 228.802 238.156 228.375C238.896 227.948 239.802 227.734 240.875 227.734C241.958 227.734 242.865 227.948 243.594 228.375C244.323 228.802 244.875 229.37 245.25 230.078C245.625 230.786 245.812 231.568 245.812 232.422V233.625C245.812 234.479 245.625 235.26 245.25 235.969C244.885 236.677 244.339 237.245 243.609 237.672C242.88 238.099 241.979 238.312 240.906 238.312C239.823 238.312 238.911 238.099 238.172 237.672C237.432 237.245 236.87 236.677 236.484 235.969C236.109 235.26 235.922 234.479 235.922 233.625ZM238.922 232.422V233.625C238.922 234 239.005 234.354 239.172 234.688C239.339 235.021 239.568 235.286 239.859 235.484C240.161 235.682 240.51 235.781 240.906 235.781C241.406 235.781 241.797 235.682 242.078 235.484C242.359 235.286 242.552 235.021 242.656 234.688C242.771 234.354 242.828 234 242.828 233.625V232.422C242.828 232.047 242.755 231.698 242.609 231.375C242.464 231.042 242.245 230.776 241.953 230.578C241.672 230.37 241.312 230.266 240.875 230.266C240.438 230.266 240.073 230.37 239.781 230.578C239.5 230.776 239.286 231.042 239.141 231.375C238.995 231.698 238.922 232.047 238.922 232.422ZM241.984 218.5L230.875 236.281L228.688 235.125L239.797 217.344L241.984 218.5Z" fill="#0A0A0A"/>
<path d="M386 217C386 310.336 310.336 386 217 386C123.664 386 48 310.336 48 217C48 123.664 123.664 48 217 48C310.336 48 386 123.664 386 217ZM81.8 217C81.8 291.669 142.331 352.2 217 352.2C291.669 352.2 352.2 291.669 352.2 217C352.2 142.331 291.669 81.8 217 81.8C142.331 81.8 81.8 142.331 81.8 217Z" fill="#F5F5F5"/>
<path d="M217 48C248.167 48 278.728 56.6189 305.302 72.9038C331.877 89.1887 353.43 112.505 367.58 140.276C381.73 168.046 387.924 199.188 385.479 230.26C383.034 261.331 372.044 291.121 353.724 316.336C335.404 341.551 310.468 361.208 281.674 373.136C252.879 385.063 221.346 388.795 190.563 383.919C159.779 379.044 130.943 365.75 107.243 345.509C83.5434 325.267 65.9027 298.866 56.2715 269.224L88.4172 258.779C96.1222 282.493 110.235 303.614 129.195 319.807C148.155 336 171.223 346.635 195.85 350.535C220.477 354.436 245.703 351.45 268.739 341.909C291.775 332.367 311.723 316.641 326.379 296.469C341.035 276.297 349.827 252.465 351.783 227.608C353.74 202.751 348.784 177.837 337.464 155.62C326.144 133.404 308.901 114.751 287.642 101.723C266.382 88.6951 241.934 81.8 217 81.8V48Z" fill="url(#paint0_linear_88_113083)"/>
<defs>
<linearGradient id="paint0_linear_88_113083" x1="48" y1="218.609" x2="386" y2="218.609" gradientUnits="userSpaceOnUse">
<stop stop-color="#57E5E5"/>
<stop offset="1" stop-color="#007D79"/>
</linearGradient>
</defs>
</svg>